<mxfile host="app.diagrams.net" modified="2022-06-17T10:50:39.775Z" agent="5.0 (Macintosh; Intel Mac OS X 10_15_7) AppleWebKit/537.36 (KHTML, like Gecko) Chrome/102.0.0.0 Safari/537.36" etag="b8cFbWOLZQus7yV4319Y" version="17.2.3" type="github">
  <diagram id="C5RBs43oDa-KdzZeNtuy" name="Page-1">
    <mxGraphModel dx="1186" dy="646" grid="1" gridSize="10" guides="1" tooltips="1" connect="1" arrows="1" fold="1" page="1" pageScale="1" pageWidth="827" pageHeight="1169" math="0" shadow="0">
      <root>
        <mxCell id="WIyWlLk6GJQsqaUBKTNV-0" />
        <mxCell id="WIyWlLk6GJQsqaUBKTNV-1" parent="WIyWlLk6GJQsqaUBKTNV-0" />
        <mxCell id="GGKrVD-dr2pByaXmv6m5-6" style="edgeStyle=orthogonalEdgeStyle;rounded=0;orthogonalLoop=1;jettySize=auto;html=1;exitX=0.5;exitY=1;exitDx=0;exitDy=0;" edge="1" parent="WIyWlLk6GJQsqaUBKTNV-1" source="GGKrVD-dr2pByaXmv6m5-0" target="GGKrVD-dr2pByaXmv6m5-5">
          <mxGeometry relative="1" as="geometry" />
        </mxCell>
        <mxCell id="GGKrVD-dr2pByaXmv6m5-0" value="新建任务(status:active)" style="shape=parallelogram;perimeter=parallelogramPerimeter;whiteSpace=wrap;html=1;fixedSize=1;" vertex="1" parent="WIyWlLk6GJQsqaUBKTNV-1">
          <mxGeometry x="300" y="320" width="120" height="60" as="geometry" />
        </mxCell>
        <mxCell id="GGKrVD-dr2pByaXmv6m5-25" style="edgeStyle=orthogonalEdgeStyle;rounded=0;orthogonalLoop=1;jettySize=auto;html=1;exitX=0.5;exitY=1;exitDx=0;exitDy=0;entryX=0.5;entryY=0;entryDx=0;entryDy=0;" edge="1" parent="WIyWlLk6GJQsqaUBKTNV-1" source="GGKrVD-dr2pByaXmv6m5-5" target="GGKrVD-dr2pByaXmv6m5-22">
          <mxGeometry relative="1" as="geometry" />
        </mxCell>
        <mxCell id="GGKrVD-dr2pByaXmv6m5-5" value="请求任务统计接口" style="rounded=0;whiteSpace=wrap;html=1;" vertex="1" parent="WIyWlLk6GJQsqaUBKTNV-1">
          <mxGeometry x="300" y="400" width="120" height="60" as="geometry" />
        </mxCell>
        <mxCell id="GGKrVD-dr2pByaXmv6m5-15" style="edgeStyle=orthogonalEdgeStyle;rounded=0;orthogonalLoop=1;jettySize=auto;html=1;exitX=0.5;exitY=1;exitDx=0;exitDy=0;entryX=0.5;entryY=0;entryDx=0;entryDy=0;" edge="1" parent="WIyWlLk6GJQsqaUBKTNV-1" source="GGKrVD-dr2pByaXmv6m5-12" target="GGKrVD-dr2pByaXmv6m5-14">
          <mxGeometry relative="1" as="geometry" />
        </mxCell>
        <mxCell id="GGKrVD-dr2pByaXmv6m5-12" value="获取任务队列最小的任务类型" style="rounded=0;whiteSpace=wrap;html=1;" vertex="1" parent="WIyWlLk6GJQsqaUBKTNV-1">
          <mxGeometry x="300" y="610" width="120" height="60" as="geometry" />
        </mxCell>
        <mxCell id="GGKrVD-dr2pByaXmv6m5-19" style="edgeStyle=orthogonalEdgeStyle;rounded=0;orthogonalLoop=1;jettySize=auto;html=1;exitX=0.5;exitY=1;exitDx=0;exitDy=0;" edge="1" parent="WIyWlLk6GJQsqaUBKTNV-1" source="GGKrVD-dr2pByaXmv6m5-26" target="GGKrVD-dr2pByaXmv6m5-16">
          <mxGeometry relative="1" as="geometry">
            <mxPoint x="360" y="930" as="sourcePoint" />
          </mxGeometry>
        </mxCell>
        <mxCell id="GGKrVD-dr2pByaXmv6m5-27" style="edgeStyle=orthogonalEdgeStyle;rounded=0;orthogonalLoop=1;jettySize=auto;html=1;exitX=0.5;exitY=1;exitDx=0;exitDy=0;entryX=0.5;entryY=0;entryDx=0;entryDy=0;" edge="1" parent="WIyWlLk6GJQsqaUBKTNV-1" source="GGKrVD-dr2pByaXmv6m5-14" target="GGKrVD-dr2pByaXmv6m5-26">
          <mxGeometry relative="1" as="geometry" />
        </mxCell>
        <mxCell id="GGKrVD-dr2pByaXmv6m5-14" value="提交任务" style="rounded=0;whiteSpace=wrap;html=1;" vertex="1" parent="WIyWlLk6GJQsqaUBKTNV-1">
          <mxGeometry x="300" y="700" width="120" height="60" as="geometry" />
        </mxCell>
        <mxCell id="GGKrVD-dr2pByaXmv6m5-16" value="结束" style="ellipse;whiteSpace=wrap;html=1;" vertex="1" parent="WIyWlLk6GJQsqaUBKTNV-1">
          <mxGeometry x="300" y="880" width="120" height="80" as="geometry" />
        </mxCell>
        <mxCell id="GGKrVD-dr2pByaXmv6m5-18" style="edgeStyle=orthogonalEdgeStyle;rounded=0;orthogonalLoop=1;jettySize=auto;html=1;exitX=0.5;exitY=1;exitDx=0;exitDy=0;entryX=0.5;entryY=0;entryDx=0;entryDy=0;" edge="1" parent="WIyWlLk6GJQsqaUBKTNV-1" source="GGKrVD-dr2pByaXmv6m5-17" target="GGKrVD-dr2pByaXmv6m5-0">
          <mxGeometry relative="1" as="geometry" />
        </mxCell>
        <mxCell id="GGKrVD-dr2pByaXmv6m5-17" value="开始" style="ellipse;whiteSpace=wrap;html=1;" vertex="1" parent="WIyWlLk6GJQsqaUBKTNV-1">
          <mxGeometry x="300" y="220" width="120" height="80" as="geometry" />
        </mxCell>
        <mxCell id="GGKrVD-dr2pByaXmv6m5-24" value="是" style="edgeStyle=orthogonalEdgeStyle;rounded=0;orthogonalLoop=1;jettySize=auto;html=1;exitX=0.5;exitY=1;exitDx=0;exitDy=0;entryX=0.5;entryY=0;entryDx=0;entryDy=0;" edge="1" parent="WIyWlLk6GJQsqaUBKTNV-1" source="GGKrVD-dr2pByaXmv6m5-22" target="GGKrVD-dr2pByaXmv6m5-12">
          <mxGeometry relative="1" as="geometry" />
        </mxCell>
        <mxCell id="GGKrVD-dr2pByaXmv6m5-28" style="edgeStyle=orthogonalEdgeStyle;rounded=0;orthogonalLoop=1;jettySize=auto;html=1;exitX=1;exitY=0.5;exitDx=0;exitDy=0;entryX=0.5;entryY=0;entryDx=0;entryDy=0;" edge="1" parent="WIyWlLk6GJQsqaUBKTNV-1" source="GGKrVD-dr2pByaXmv6m5-22" target="GGKrVD-dr2pByaXmv6m5-16">
          <mxGeometry relative="1" as="geometry">
            <Array as="points">
              <mxPoint x="460" y="530" />
              <mxPoint x="460" y="860" />
              <mxPoint x="360" y="860" />
            </Array>
          </mxGeometry>
        </mxCell>
        <mxCell id="GGKrVD-dr2pByaXmv6m5-29" value="否" style="edgeLabel;html=1;align=center;verticalAlign=middle;resizable=0;points=[];" vertex="1" connectable="0" parent="GGKrVD-dr2pByaXmv6m5-28">
          <mxGeometry x="-0.8918" y="2" relative="1" as="geometry">
            <mxPoint as="offset" />
          </mxGeometry>
        </mxCell>
        <mxCell id="GGKrVD-dr2pByaXmv6m5-22" value="是否有可用任务类型" style="rhombus;whiteSpace=wrap;html=1;" vertex="1" parent="WIyWlLk6GJQsqaUBKTNV-1">
          <mxGeometry x="295" y="490" width="130" height="80" as="geometry" />
        </mxCell>
        <mxCell id="GGKrVD-dr2pByaXmv6m5-26" value="status变更为doing" style="shape=parallelogram;perimeter=parallelogramPerimeter;whiteSpace=wrap;html=1;fixedSize=1;" vertex="1" parent="WIyWlLk6GJQsqaUBKTNV-1">
          <mxGeometry x="300" y="780" width="120" height="60" as="geometry" />
        </mxCell>
      </root>
    </mxGraphModel>
  </diagram>
</mxfile>
